<svg width="1281" height="293" viewBox="0 0 1281 293" fill="none" xmlns="http://www.w3.org/2000/svg">
<path d="M1047.2 289.208C1033.83 288.155 1020.47 287.153 1007.09 286.201C1007.1 286.056 1007.37 282.214 1007.38 282.069C1019.78 280.206 1032.35 279.634 1044.87 280.363L1046.07 262.94C1026.47 260.71 1011.08 252.387 995.172 236.641C996.86 232.574 997.842 228.249 998.074 223.852C999.862 195.101 1001.65 166.355 1003.45 137.612C1003.84 131.351 1001.29 128.699 996.449 128.399C996.552 126.689 996.663 124.979 996.782 123.27C1011.16 124.17 1025.54 125.123 1039.93 126.131L1039.58 131.257C1034.74 130.921 1031.88 133.012 1031.45 139.469C1031.32 141.404 1030.99 146.319 1030.45 154.213L1032.43 154.353L1033.08 154.399L1059.08 156.243L1058.16 169.532L1031.51 167.643L1030.95 175.615L1031.61 175.661L1057.61 177.505L1056.69 190.795L1030.69 188.951L1030.04 188.905L1029.48 196.879L1056.13 198.768L1055.21 212.058L1026.7 210.025L1026.04 219.779C1025.32 230.617 1034.31 238.654 1051.96 239.944C1068.46 241.162 1078.8 233.205 1079.51 224.098L1085.72 142.877C1086.17 136.993 1083.64 134.503 1079 134.146C1079.13 132.44 1079.26 130.731 1079.39 129.021C1093.19 130.083 1106.98 131.195 1120.77 132.357C1120.63 134.064 1120.5 135.77 1120.35 137.477C1115.92 137.102 1112.82 139.142 1112.38 144.642L1105.35 231.337C1104.85 235.737 1105.27 240.194 1106.58 244.425C1091.03 254.659 1075.54 261.996 1059.26 263.244L1058 281.284C1068.05 282.536 1077.96 284.704 1087.61 287.759C1087.6 287.905 1087.32 291.936 1087.31 292.08C1073.94 291.073 1060.57 290.115 1047.2 289.208Z" fill="#F2F0DE"/>
<path d="M109.286 272.989L109.908 273.005L109.96 272.384L113.064 234.51L113.114 233.905L112.516 233.806L107.793 233.026L107.245 232.935L107.062 233.462C105.01 239.032 101.335 243.858 96.5104 247.317C91.4215 251.156 84.3946 253.537 75.3851 254.415C70.0296 254.976 64.6167 254.556 59.4115 253.177C54.3764 251.817 49.704 249.361 45.7282 245.986C41.5231 242.215 38.1432 237.616 35.8009 232.477C32.9187 225.974 31.1678 219.026 30.6237 211.933C29.8031 204.948 30.0704 197.879 31.4159 190.976C32.5809 185.564 34.8975 180.466 38.2082 176.029V176.021C41.214 171.977 45.1651 168.732 49.7158 166.569H49.7237C54.6801 164.179 60.0304 162.712 65.5127 162.239C74.6745 161.338 82.072 161.918 87.7453 163.909C93.4436 165.908 97.6043 168.903 100.29 172.864L100.594 173.313L101.093 173.1L105.383 171.264L105.909 171.038L105.756 170.483L96.3739 136.481L96.1855 135.8L95.5194 136.036C94.6125 136.356 93.2955 136.778 91.5684 137.3H91.5592C90.0656 137.781 88.5256 138.104 86.9646 138.264C85.3944 138.388 83.8187 138.425 82.2444 138.376C80.1979 138.221 78.0417 138.133 75.7758 138.113C73.4932 137.98 71.1623 137.912 68.783 137.908C66.6733 137.772 64.5563 137.798 62.4508 137.988C53.2774 138.813 44.3458 141.382 36.1355 145.556C28.2192 149.468 21.1938 154.969 15.4972 161.716C9.76513 168.711 5.51453 176.797 3.00352 185.485C0.20807 195.135 -0.647819 205.243 0.485285 215.226C1.30324 225.475 3.92708 235.498 8.23562 244.834C12.06 252.789 17.5515 259.829 24.3372 265.474C31.1029 270.85 38.9319 274.729 47.3073 276.856C56.493 279.153 66.0139 279.8 75.4259 278.767C80.1646 278.345 84.8152 277.227 89.2275 275.448C92.9196 273.982 96.7919 273.019 100.741 272.584C101.602 272.503 102.468 272.476 103.333 272.503C104.271 272.529 105.207 272.61 106.136 272.747H106.153C107.263 272.882 108.307 272.963 109.286 272.989Z" fill="#F2F0DE"/>
<path d="M375.914 251.2L375.951 251.858L376.609 251.822L418.539 249.459L419.197 249.422L419.161 248.763L418.866 243.54L418.829 242.882L418.17 242.919C415.394 243.076 413.645 242.712 412.726 242.017C411.714 240.737 411.19 239.138 411.249 237.507L405.065 127.814C404.933 125.531 405.336 124.199 406.016 123.544L406.03 123.528L406.046 123.512C406.551 123.031 407.176 122.693 407.856 122.534C408.998 122.225 410.172 122.049 411.355 122.007L412.014 121.97L411.977 121.312L411.68 116.261L411.643 115.603L410.984 115.64L375.259 117.654L374.65 117.688L374.641 118.298C374.617 119.85 374.36 121.39 373.877 122.865V122.894C373.42 124.458 372.811 125.974 372.057 127.418V127.425L344.379 183.643L311.271 130.86C309.492 128.195 308.265 125.2 307.661 122.053L307.561 121.477L306.977 121.51L268.229 123.687L267.571 123.724L267.608 124.382L267.893 129.431L267.93 130.089L268.588 130.052C269.768 129.962 270.954 130.006 272.123 130.184C272.816 130.267 273.475 130.532 274.031 130.953L274.046 130.966L274.061 130.978C274.595 131.483 275.014 132.098 275.29 132.779C275.565 133.461 275.69 134.195 275.656 134.929L281.859 244.97C281.99 247.22 281.545 248.637 280.738 249.428L280.723 249.441L280.712 249.456C280.218 249.93 279.609 250.266 278.944 250.431C277.848 250.737 276.719 250.914 275.582 250.957L274.924 250.995L274.962 251.653L275.256 256.876L275.293 257.534L275.951 257.497L318.055 255.127L318.714 255.09L318.675 254.432L318.381 249.209L318.345 248.551L317.687 248.588C315.811 248.862 313.897 248.539 312.214 247.666C311.674 247.091 311.253 246.415 310.975 245.676C310.698 244.938 310.569 244.152 310.597 243.363L306.534 171.266L338.496 221.84L338.702 222.168L339.089 222.146L350.589 221.498L350.968 221.477L351.139 221.137L378.603 166.606L382.686 239.11C382.939 240.747 382.535 242.416 381.562 243.756C380.73 244.558 379.032 245.12 376.239 245.279L375.58 245.316L375.617 245.975L375.914 251.2Z" fill="#F2F0DE"/>
<path d="M498.856 139.97H498.866C504.017 142.768 506.741 147.52 506.99 154.375C507.124 157.255 506.694 160.132 505.724 162.847V162.863C504.785 165.481 503.133 167.784 500.954 169.513C498.186 171.644 495.016 173.194 491.634 174.07C486.897 175.366 482.016 176.06 477.105 176.136H469.746C467.593 176.111 465.584 176.08 463.721 176.044L462.296 136.743C464.052 136.577 465.998 136.401 468.134 136.217C470.635 136.011 473.44 135.852 476.551 135.739C486.198 135.67 493.612 137.015 498.856 139.97ZM464.557 199.641C466.422 199.676 468.475 199.705 470.717 199.726C473.364 199.746 475.534 199.725 477.228 199.665C485.892 199.454 494.495 198.143 502.829 195.765H502.838C509.669 193.755 516.089 190.552 521.803 186.304C526.798 182.515 530.823 177.595 533.549 171.949C536.314 166.133 537.593 159.723 537.27 153.291C536.974 145.136 535.262 138.388 532.135 133.047C529.168 127.665 524.743 123.228 519.368 120.249C513.21 116.82 506.445 114.619 499.449 113.767C490.923 112.604 482.309 112.213 473.713 112.598C470.347 112.72 466.565 112.914 462.368 113.182C458.17 113.45 453.856 113.78 449.427 114.173C444.991 114.449 440.617 114.782 436.305 115.17C432.12 115.552 428.353 115.862 425.004 116.1L424.37 116.144L424.393 116.782L424.57 121.633L424.593 122.292L425.252 122.268C426.454 122.2 427.66 122.267 428.847 122.467C429.549 122.56 430.215 122.837 430.776 123.27L430.79 123.283L430.806 123.295C431.325 123.772 431.731 124.359 431.995 125.012C432.259 125.666 432.375 126.37 432.334 127.073L436.295 236.405C436.524 238.077 436.14 239.775 435.215 241.186C434.676 241.654 434.024 241.974 433.323 242.114C432.107 242.403 430.863 242.559 429.613 242.579L428.955 242.603L428.978 243.262L429.167 248.459L429.19 249.117L429.849 249.093L473.202 247.521L473.86 247.497L473.836 246.839L473.648 241.64L473.623 240.982L472.965 241.006C471.746 241.072 470.525 241.006 469.321 240.807C468.582 240.703 467.878 240.429 467.263 240.008C466.25 238.666 465.75 237.007 465.852 235.329L464.557 199.641Z" fill="#F2F0DE"/>
<path d="M788.699 120.994L789.358 121.002L789.366 120.344L789.43 115.304L789.439 114.646L788.781 114.637L747.632 114.11L746.974 114.102L746.965 114.761L746.9 119.801L746.892 120.459L747.551 120.467C748.758 120.459 749.963 120.585 751.142 120.844C751.841 120.973 752.494 121.284 753.035 121.744L753.064 121.774L753.096 121.799C753.591 122.26 753.969 122.833 754.198 123.469C754.427 124.106 754.501 124.789 754.413 125.46L753.545 193.02L702.746 122.844C700.926 120.258 699.824 117.235 699.553 114.084L699.497 113.495L698.906 113.488L661.905 113.008L661.246 113L661.238 113.658L661.172 118.698L661.164 119.357L661.822 119.364C664.571 119.4 666.3 119.833 667.189 120.518L667.221 120.542L667.254 120.561C668.138 121.088 668.703 122.284 668.679 124.528L667.271 234.185C667.349 235.031 667.259 235.884 667.004 236.695C666.749 237.505 666.335 238.257 665.787 238.906C665.235 239.354 664.574 239.648 663.872 239.759C662.687 239.988 661.479 240.083 660.273 240.044L659.614 240.036L659.605 240.694L659.539 245.907L659.53 246.565L660.189 246.574L701.337 247.101L701.996 247.11L702.005 246.452L702.071 241.238L702.08 240.58L701.42 240.569C698.717 240.535 696.942 239.998 695.927 239.106C695.408 238.473 695.02 237.743 694.788 236.958C694.556 236.173 694.483 235.349 694.575 234.535L695.54 159.411L752.358 238.618C753.21 239.883 753.829 241.291 754.186 242.774V242.785C754.606 244.22 754.881 245.694 755.008 247.184L755.053 247.787L755.656 247.794L779.478 248.099L780.137 248.108L780.146 247.45L781.704 126.149C781.636 125.417 781.731 124.679 781.982 123.987C782.232 123.296 782.632 122.668 783.152 122.148C784.055 121.402 785.829 120.957 788.699 120.994Z" fill="#F2F0DE"/>
<path d="M893.456 165.394L893.462 165.409C895.525 171.373 896.426 177.676 896.118 183.979C896.02 190.554 894.879 197.071 892.736 203.288C890.847 208.721 887.819 213.687 883.854 217.854C879.988 221.836 875.261 224.88 870.035 226.751C864.05 228.86 857.714 229.794 851.375 229.503H842.954C840.397 229.431 838.229 229.323 836.449 229.18L838.981 139.627C840.562 139.582 842.614 139.595 845.137 139.666H845.164C848.024 139.631 850.944 139.656 853.922 139.74C860.008 139.824 866.03 140.988 871.709 143.179H871.724C876.817 145.001 881.43 147.953 885.219 151.813C888.935 155.675 891.748 160.313 893.456 165.394ZM921.523 212.554C924.481 203.662 926.084 194.376 926.277 185.007C926.711 175.276 925.583 165.539 922.934 156.165C920.581 148.019 916.157 140.62 910.095 134.691C904.195 128.84 896.407 124.31 886.731 121.1C877.178 117.888 865.509 116.088 851.725 115.7C842.996 115.454 834.322 115.384 825.701 115.49C817.081 115.596 809.489 115.673 802.925 115.721H802.288L802.271 116.356L802.127 121.437L802.109 122.095L802.768 122.114C804.017 122.126 805.262 122.258 806.486 122.509C807.183 122.625 807.842 122.909 808.406 123.337L808.424 123.354L808.444 123.369C808.857 123.744 809.135 124.245 809.236 124.795C809.456 125.77 809.54 126.77 809.485 127.768L806.338 238.86C806.272 241.17 805.752 242.367 805.058 242.845C804.45 243.19 803.774 243.4 803.076 243.459C801.833 243.612 800.58 243.661 799.328 243.606L798.669 243.588L798.651 244.246L798.504 249.494L798.487 250.104L799.091 250.168C802.082 250.487 805.489 250.759 809.312 250.985C813.25 251.33 817.307 251.62 821.483 251.854C825.786 252.21 830.03 252.447 834.214 252.565C838.517 252.804 842.519 252.975 846.22 253.08C860.723 253.49 872.97 252.072 882.963 248.827C892.178 245.99 900.623 241.084 907.653 234.484C913.944 228.373 918.698 220.857 921.523 212.554Z" fill="#F2F0DE"/>
<path d="M933.465 254.76L933.429 255.418L934.088 255.452L977.609 257.75L978.268 257.784L978.302 257.126L978.583 251.824L978.617 251.166L977.958 251.132C976.71 251.088 975.47 250.923 974.254 250.639C973.566 250.504 972.92 250.206 972.371 249.77C971.668 248.978 971.274 247.38 971.413 244.712L977.258 134.036C977.389 131.474 977.956 129.971 978.751 129.265C979.326 128.828 980.008 128.554 980.726 128.473C981.956 128.288 983.203 128.241 984.444 128.332L985.103 128.366L985.138 127.708L985.408 122.581L985.443 121.923L984.785 121.889L941.266 119.594L940.607 119.559L940.573 120.218L940.301 125.344L940.267 126.003L940.926 126.037C942.174 126.08 943.414 126.245 944.63 126.529C945.326 126.664 945.978 126.967 946.528 127.413C946.952 127.89 947.224 128.483 947.309 129.116C947.501 130.219 947.555 131.343 947.471 132.46L941.626 243.135C941.484 245.809 940.863 247.35 939.977 248.046C939.395 248.427 938.73 248.661 938.038 248.727C936.846 248.882 935.641 248.918 934.442 248.834L933.783 248.799L933.748 249.458L933.465 254.76Z" fill="#F2F0DE"/>
<path d="M1223.91 277.89L1223.85 278.548L1224.51 278.609L1267.49 282.714L1268.14 282.775L1268.2 282.116L1268.71 276.86L1268.77 276.202L1268.11 276.141C1265.26 275.87 1263.53 275.236 1262.7 274.395C1261.86 272.969 1261.58 271.289 1261.89 269.667L1272.43 159.28C1272.65 156.986 1273.26 155.716 1274.05 155.165L1274.07 155.154L1274.09 155.14C1274.68 154.734 1275.37 154.492 1276.09 154.438C1277.3 154.306 1278.52 154.31 1279.73 154.45L1280.39 154.511L1280.45 153.853L1280.94 148.772L1281 148.113L1280.34 148.052L1243.71 144.553L1243.1 144.492L1243 145.095C1242.74 146.641 1242.24 148.138 1241.52 149.532L1241.51 149.546L1241.51 149.56C1240.8 151.052 1239.95 152.47 1238.96 153.793V153.799L1202.19 205.661L1176.63 147.861C1175.23 144.936 1174.44 141.759 1174.31 138.52L1174.29 137.936L1173.71 137.88L1133.99 134.078L1133.34 134.017L1133.27 134.675L1132.79 139.756L1132.73 140.414L1133.38 140.475C1134.6 140.567 1135.8 140.794 1136.97 141.153C1137.66 141.342 1138.29 141.711 1138.79 142.221L1138.81 142.236L1138.82 142.25C1139.29 142.832 1139.62 143.509 1139.8 144.233C1139.97 144.958 1139.99 145.712 1139.84 146.442L1129.26 257.179C1129.05 259.441 1128.38 260.787 1127.44 261.453L1127.42 261.464L1127.41 261.475C1126.83 261.878 1126.15 262.122 1125.45 262.182C1124.28 262.318 1123.11 262.318 1121.94 262.182L1121.28 262.121L1121.22 262.78L1120.72 268.037L1120.66 268.695L1121.32 268.756L1164.48 272.878L1165.14 272.939L1165.2 272.281L1165.7 267.025L1165.76 266.367L1165.1 266.306C1163.15 266.29 1161.25 265.671 1159.67 264.533C1159.21 263.879 1158.88 263.141 1158.72 262.36C1158.55 261.58 1158.54 260.773 1158.68 259.988L1165.62 187.369L1190.38 242.829L1190.53 243.179L1190.92 243.216L1202.71 244.343L1203.08 244.378L1203.3 244.073L1239.62 193.851L1232.64 266.875C1232.65 267.705 1232.48 268.527 1232.17 269.293C1231.85 270.059 1231.38 270.754 1230.79 271.337C1229.81 272.013 1227.99 272.312 1225.12 272.038L1224.47 271.977L1224.41 272.635L1223.91 277.89Z" fill="#F2F0DE"/>
<path d="M642.281 251.264L642.933 251.438L643.091 250.78L650.817 218.646L650.959 218.055L650.38 217.866L645.528 216.286L644.913 216.084L644.708 216.708C643.993 219.337 642.575 221.72 640.606 223.602C638.574 225.017 636.125 225.707 633.653 225.562H582.919V186.667H628.617C629.693 186.64 630.768 186.751 631.815 186.996C632.387 187.102 632.91 187.389 633.306 187.815L633.335 187.852L633.368 187.885C633.762 188.331 634.027 188.878 634.132 189.465C634.35 190.466 634.449 191.488 634.427 192.512V193.17H640.775V156.904H634.428V157.562C634.452 158.582 634.34 159.601 634.093 160.591C633.963 161.186 633.66 161.729 633.224 162.154C632.75 162.493 632.203 162.715 631.627 162.802C630.635 162.986 629.626 163.069 628.617 163.051H582.919V138.029H633.472C635.696 137.913 637.895 138.545 639.719 139.824H639.736C641.748 141.464 643.284 143.613 644.185 146.047L644.421 146.591L644.986 146.414L649.478 145.009L650.057 144.826L649.925 144.235L643.099 113.519L642.928 112.75L642.202 113.054C640.556 113.739 638.805 114.14 637.025 114.24C635.118 114.356 633.454 114.414 632.033 114.413H545.485V120.819H546.143C547.387 120.792 548.629 120.917 549.842 121.193C550.564 121.332 551.232 121.676 551.766 122.184L551.779 122.198L551.794 122.212C552.549 122.95 553.033 124.467 553.033 127.008V236.759C553.033 239.302 552.549 240.817 551.794 241.556C551.239 242.017 550.571 242.321 549.859 242.438C548.636 242.685 547.389 242.798 546.142 242.773H545.483V249.358H631.674C633.56 249.36 635.438 249.59 637.269 250.041H637.278C639.31 250.508 640.978 250.916 642.281 251.264Z" fill="#F2F0DE"/>
<path d="M224.599 174.098L224.605 174.113C227.474 180.381 229.204 187.11 229.714 193.984C230.466 200.777 230.02 207.649 228.397 214.288C227.017 219.779 224.591 224.953 221.251 229.524C218.163 233.666 214.227 237.1 209.706 239.598C205.17 241.985 200.206 243.453 195.101 243.917C189.927 244.435 184.702 243.87 179.758 242.257C174.918 240.609 170.474 237.97 166.71 234.508C162.677 230.51 159.383 225.831 156.982 220.685C154.275 214.487 152.62 207.881 152.082 201.139C151.315 194.36 151.699 187.5 153.216 180.848C154.597 175.356 157.027 170.183 160.37 165.612V165.604C163.346 161.438 167.23 158.001 171.728 155.553C176.227 153.058 181.198 151.528 186.322 151.061C191.498 150.544 196.724 151.11 201.669 152.723H201.682C206.593 154.223 211.105 156.806 214.886 160.28C219.037 164.171 222.343 168.875 224.599 174.098ZM224.696 260.348C232.76 256.5 239.899 250.957 245.623 244.096C251.347 237.235 255.522 229.219 257.862 220.596C260.611 210.956 261.465 200.874 260.376 190.909C259.599 180.662 256.784 170.674 252.095 161.529C247.985 153.505 242.178 146.471 235.079 140.916C228.137 135.491 220.134 131.585 211.587 129.449C202.606 127.186 193.299 126.504 184.084 127.434C174.98 128.256 166.089 130.657 157.809 134.53C149.892 138.125 142.813 143.335 137.027 149.827C131.079 156.635 126.638 164.623 123.994 173.267C121.092 183.246 120.209 193.704 121.397 204.028C122.19 214.329 125.01 224.372 129.693 233.58C133.857 241.571 139.655 248.597 146.711 254.201C153.651 259.515 161.567 263.416 170.01 265.681H170.02C188.322 270.165 207.605 268.28 224.692 260.337L224.696 260.348Z" fill="#F2F0DE"/>
<path d="M733.998 82.0949C733.236 81.8869 732.266 81.6443 731.089 81.3672C730.002 81.0928 728.885 80.9532 727.764 80.9516H678.298V77.8343C680.099 77.8343 681.277 77.5572 681.833 77.003C682.388 76.4488 682.665 75.4097 682.664 73.8857V8.93628C682.664 7.41225 682.387 6.37315 681.833 5.81895C681.278 5.19529 680.1 4.88345 678.298 4.88345V1.86974H727.971C728.802 1.86974 729.772 1.835 730.88 1.76552C731.954 1.70465 733.008 1.45867 733.998 1.03845L737.947 19.2244L735.349 20.0532C734.806 18.5545 733.873 17.2274 732.648 16.2082C731.533 15.4008 730.177 14.9975 728.803 15.0649H699.183V30.6576H725.994C727.449 30.6576 728.419 30.4498 728.904 30.0341C729.458 29.549 729.735 28.5444 729.735 27.0204H732.645V47.6977H729.735C729.735 46.1737 729.492 45.1691 729.007 44.684C728.592 44.1298 727.587 43.8527 725.994 43.8527H699.185V67.651H728.906C730.427 67.7367 731.932 67.2964 733.167 66.4041C734.368 65.2356 735.23 63.7631 735.661 62.1434L738.464 63.0789L733.998 82.0949Z" fill="#F2F0DE"/>
<path d="M647.562 79.8071V76.6897C649.294 76.6897 650.437 76.4472 650.991 75.9621C651.615 75.4079 651.927 74.334 651.927 72.7405V44.475H620.231V72.7411C620.231 74.2652 620.508 75.3043 621.062 75.8585C621.686 76.4127 622.864 76.6897 624.597 76.6897V79.8071H599.447V76.6897C601.248 76.6897 602.426 76.4472 602.982 75.9621C603.536 75.4079 603.813 74.334 603.813 72.7405V7.68754C603.813 6.09404 603.536 5.05493 602.982 4.57022C602.425 4.01603 601.212 3.73894 599.343 3.73894V0.72522H624.596V3.73894C622.795 3.73894 621.616 4.01603 621.061 4.57022C620.507 5.05534 620.23 6.09445 620.23 7.68754V31.2774H651.927V7.68754C651.927 6.09404 651.615 5.05493 650.991 4.57022C650.367 4.01603 649.224 3.73894 647.562 3.73894V0.72522H672.814V3.73894C671.013 3.73894 669.835 3.9815 669.279 4.46662C668.724 4.95174 668.447 6.02558 668.448 7.68815V72.7411C668.448 74.3346 668.725 75.4085 669.279 75.9627C669.834 76.4478 671.012 76.6904 672.814 76.6904V79.8077L647.562 79.8071Z" fill="#F2F0DE"/>
<path d="M589.903 0C588.86 0.363146 587.779 0.607255 586.682 0.72768L589.09 14.3726C590.188 14.2522 591.269 14.0081 592.312 13.6449L589.903 0Z" fill="#730B12"/>
<path d="M590.211 1.42428L589.902 0L592.308 13.6455L592.617 15.0698L590.211 1.42428Z" fill="#730B12"/>
<path d="M590.905 4.59466L590.216 1.42554L592.622 15.0711L593.311 18.2402L590.905 4.59466Z" fill="#730B12"/>
<path d="M591.154 19.1208C590.669 17.619 589.768 16.2856 588.556 15.2758C587.516 14.5136 585.715 14.1325 583.152 14.1325H564.862V72.743C564.862 74.3365 565.174 75.4449 565.798 76.0681C566.421 76.6223 567.6 76.8994 569.333 76.8994V80.0167H543.975V76.9C545.707 76.9 546.885 76.6229 547.51 76.0687C548.133 75.4451 548.445 74.3367 548.445 72.7436V14.1331H530.569C528.005 14.1331 526.135 14.5487 524.957 15.38C523.718 16.3009 522.837 17.6229 522.463 19.1208L519.554 18.1859L523.503 0C524.407 0.347405 525.347 0.591515 526.306 0.72768C527.582 0.879741 528.866 0.949159 530.151 0.935501H583.877C584.815 0.922846 585.751 0.853445 586.681 0.72768C587.78 0.607617 588.862 0.363504 589.907 0L593.856 18.1859L591.154 19.1208Z" fill="#F2F0DE"/>
<path d="M810.909 10.6483L820.416 22.2187C820.416 22.2187 818.394 40.499 780.486 45.8213C780.486 45.8213 811.385 37.0288 810.909 10.6483Z" fill="#FFBD76"/>
<path d="M810.909 86.3398L820.416 74.7694C820.416 74.7694 818.394 56.4891 780.486 51.1674C780.486 51.1674 811.385 59.9599 810.909 86.3398Z" fill="#FFBD76"/>
<path d="M852.801 48.4918L836.806 40.8488L798.788 48.4918L836.806 56.1367L852.801 48.4918Z" fill="#FFBD76"/>
<path d="M470.49 10.6483L460.983 22.2187C460.983 22.2187 463.002 40.5021 500.912 45.8213C500.912 45.8213 470.013 37.0288 470.49 10.6483Z" fill="#FFBD76"/>
<path d="M470.49 86.3398L460.983 74.77C460.983 74.77 463.002 56.4891 500.912 51.1674C500.912 51.1674 470.013 59.9599 470.49 86.3398Z" fill="#FFBD76"/>
<path d="M428.598 48.4932L444.594 40.8501L482.611 48.4932L444.594 56.1381L428.598 48.4932Z" fill="#FFBD76"/>
</svg>
